<mxfile host="app.diagrams.net" modified="2023-03-29T14:55:31.853Z" agent="Mozilla/5.0 (Windows NT 10.0; Win64; x64) AppleWebKit/537.36 (KHTML, like Gecko) Chrome/111.0.0.0 Safari/537.36" etag="_UrO9djG5FLY_I_Nw5Qp" version="21.1.2" type="github">
  <diagram name="Página-1" id="-VNnlDIRkYoWYkRk1L6F">
    <mxGraphModel dx="880" dy="452" grid="1" gridSize="10" guides="1" tooltips="1" connect="1" arrows="1" fold="1" page="1" pageScale="1" pageWidth="827" pageHeight="1169" math="0" shadow="0">
      <root>
        <mxCell id="0" />
        <mxCell id="1" parent="0" />
        <mxCell id="XpRSO7HDRtoMjhI4xkfT-1" value="&lt;h1&gt;Peaton cruza dos calles&lt;/h1&gt;&lt;p&gt;Crear un algoritmo el cual realiza un peaton al cruzar dos calles utilizando el semaforo.&lt;/p&gt;&lt;p&gt;&lt;br&gt;&lt;/p&gt;&lt;p&gt;Peaton cruza dos calles&lt;/p&gt;&lt;p&gt;Crear un algoritmo el cual realiza un peaton al cruzar dos calles utilizando el semaforo.&lt;/p&gt;&lt;p&gt;&lt;span style=&quot;background-color: initial;&quot;&gt;1 - Inicio&lt;br&gt;&lt;/span&gt;&lt;span style=&quot;background-color: initial;&quot;&gt;2 - Acercarse hasta cruce peatonal 1&lt;br&gt;&lt;/span&gt;&lt;span style=&quot;background-color: initial;&quot;&gt;3 - ¿Semaforo esta en verde?&lt;br&gt;&lt;/span&gt;&lt;span style=&quot;background-color: initial;&quot;&gt;&lt;span style=&quot;white-space: pre;&quot;&gt; &lt;/span&gt;Si&lt;br&gt;&lt;/span&gt;&lt;span style=&quot;background-color: initial;&quot;&gt;&lt;span style=&quot;white-space: pre;&quot;&gt; &lt;/span&gt;4 - Peaton Cruza calle 1&lt;br&gt;&lt;/span&gt;&lt;span style=&quot;background-color: initial;&quot;&gt;&lt;span style=&quot;white-space: pre;&quot;&gt; &lt;/span&gt;&lt;span style=&quot;white-space: pre;&quot;&gt; &lt;/span&gt;5 - Semaforo esta en verde?&lt;br&gt;&lt;/span&gt;&lt;span style=&quot;background-color: initial;&quot;&gt;&lt;span style=&quot;white-space: pre;&quot;&gt; &lt;/span&gt;&lt;span style=&quot;white-space: pre;&quot;&gt; &lt;span style=&quot;white-space: pre;&quot;&gt; &lt;/span&gt;&lt;/span&gt;Si&lt;br&gt;&lt;/span&gt;&lt;span style=&quot;background-color: initial;&quot;&gt;&lt;span style=&quot;white-space: pre;&quot;&gt; &lt;/span&gt;&lt;span style=&quot;white-space: pre;&quot;&gt; &lt;/span&gt;&lt;span style=&quot;white-space: pre;&quot;&gt; &lt;/span&gt;6 - Peaton Cruza calle 2&lt;br&gt;&lt;/span&gt;&lt;span style=&quot;background-color: initial;&quot;&gt;&lt;span style=&quot;white-space: pre;&quot;&gt; &lt;/span&gt;&lt;span style=&quot;white-space: pre;&quot;&gt; &lt;/span&gt;&lt;span style=&quot;white-space: pre;&quot;&gt; &lt;/span&gt;No&lt;br&gt;&lt;/span&gt;&lt;span style=&quot;background-color: initial;&quot;&gt;&lt;span style=&quot;white-space: pre;&quot;&gt; &lt;/span&gt;&lt;span style=&quot;white-space: pre;&quot;&gt; &lt;/span&gt;&lt;span style=&quot;white-space: pre;&quot;&gt; &lt;/span&gt;7 - Imprime &quot;no cruzar calle&quot;. &lt;br&gt;&lt;span style=&quot;white-space: pre;&quot;&gt; &lt;/span&gt;&lt;span style=&quot;white-space: pre;&quot;&gt; &lt;/span&gt;&lt;span style=&quot;white-space: pre;&quot;&gt; &lt;/span&gt;8 - Vuelve a punto 5&lt;br&gt;&lt;/span&gt;&lt;span style=&quot;background-color: initial;&quot;&gt;&lt;span style=&quot;white-space: pre;&quot;&gt; &lt;/span&gt;No&lt;br&gt;&lt;/span&gt;&lt;span style=&quot;background-color: initial;&quot;&gt;&lt;span style=&quot;white-space: pre;&quot;&gt; &lt;/span&gt;9 - Imprime &quot;no cruzar calle&quot;. Semaforo esta en rojo.&lt;br&gt;&lt;span style=&quot;white-space: pre;&quot;&gt; &lt;/span&gt;10 - Vuelve a punto 3&lt;/span&gt;&lt;/p&gt;&lt;p&gt;9 - Fin&lt;/p&gt;" style="text;html=1;strokeColor=none;fillColor=none;spacing=5;spacingTop=-20;whiteSpace=wrap;overflow=hidden;rounded=0;" parent="1" vertex="1">
          <mxGeometry x="20" y="20" width="320" height="430" as="geometry" />
        </mxCell>
        <mxCell id="XpRSO7HDRtoMjhI4xkfT-15" style="edgeStyle=orthogonalEdgeStyle;rounded=0;orthogonalLoop=1;jettySize=auto;html=1;entryX=0.5;entryY=0;entryDx=0;entryDy=0;" parent="1" source="XpRSO7HDRtoMjhI4xkfT-2" target="XpRSO7HDRtoMjhI4xkfT-3" edge="1">
          <mxGeometry relative="1" as="geometry" />
        </mxCell>
        <mxCell id="XpRSO7HDRtoMjhI4xkfT-2" value="Inicio" style="strokeWidth=2;html=1;shape=mxgraph.flowchart.start_1;whiteSpace=wrap;" parent="1" vertex="1">
          <mxGeometry x="600" y="30" width="170" height="40" as="geometry" />
        </mxCell>
        <mxCell id="XpRSO7HDRtoMjhI4xkfT-16" style="edgeStyle=orthogonalEdgeStyle;rounded=0;orthogonalLoop=1;jettySize=auto;html=1;entryX=0.5;entryY=0;entryDx=0;entryDy=0;entryPerimeter=0;" parent="1" source="XpRSO7HDRtoMjhI4xkfT-3" target="XpRSO7HDRtoMjhI4xkfT-6" edge="1">
          <mxGeometry relative="1" as="geometry" />
        </mxCell>
        <mxCell id="XpRSO7HDRtoMjhI4xkfT-3" value="Acercarse hasta cruce peatonal 1" style="rounded=1;whiteSpace=wrap;html=1;absoluteArcSize=1;arcSize=14;strokeWidth=2;" parent="1" vertex="1">
          <mxGeometry x="575" y="100" width="220" height="40" as="geometry" />
        </mxCell>
        <mxCell id="XpRSO7HDRtoMjhI4xkfT-18" style="edgeStyle=orthogonalEdgeStyle;rounded=0;orthogonalLoop=1;jettySize=auto;html=1;entryX=0.5;entryY=0;entryDx=0;entryDy=0;entryPerimeter=0;" parent="1" source="XpRSO7HDRtoMjhI4xkfT-4" target="XpRSO7HDRtoMjhI4xkfT-17" edge="1">
          <mxGeometry relative="1" as="geometry" />
        </mxCell>
        <mxCell id="XpRSO7HDRtoMjhI4xkfT-4" value="Peaton cruza calle 1" style="rounded=1;whiteSpace=wrap;html=1;absoluteArcSize=1;arcSize=14;strokeWidth=2;" parent="1" vertex="1">
          <mxGeometry x="350" y="340" width="220" height="40" as="geometry" />
        </mxCell>
        <mxCell id="XpRSO7HDRtoMjhI4xkfT-24" style="edgeStyle=orthogonalEdgeStyle;rounded=0;orthogonalLoop=1;jettySize=auto;html=1;entryX=0.5;entryY=0;entryDx=0;entryDy=0;entryPerimeter=0;" parent="1" source="XpRSO7HDRtoMjhI4xkfT-5" target="XpRSO7HDRtoMjhI4xkfT-23" edge="1">
          <mxGeometry relative="1" as="geometry" />
        </mxCell>
        <mxCell id="XpRSO7HDRtoMjhI4xkfT-5" value="Peaton cruza calle 2" style="rounded=1;whiteSpace=wrap;html=1;absoluteArcSize=1;arcSize=14;strokeWidth=2;" parent="1" vertex="1">
          <mxGeometry x="110" y="600" width="220" height="40" as="geometry" />
        </mxCell>
        <mxCell id="XpRSO7HDRtoMjhI4xkfT-11" style="edgeStyle=orthogonalEdgeStyle;rounded=0;orthogonalLoop=1;jettySize=auto;html=1;" parent="1" source="XpRSO7HDRtoMjhI4xkfT-6" target="XpRSO7HDRtoMjhI4xkfT-7" edge="1">
          <mxGeometry relative="1" as="geometry" />
        </mxCell>
        <mxCell id="XpRSO7HDRtoMjhI4xkfT-14" style="edgeStyle=orthogonalEdgeStyle;rounded=0;orthogonalLoop=1;jettySize=auto;html=1;" parent="1" source="XpRSO7HDRtoMjhI4xkfT-6" target="XpRSO7HDRtoMjhI4xkfT-4" edge="1">
          <mxGeometry relative="1" as="geometry" />
        </mxCell>
        <mxCell id="XpRSO7HDRtoMjhI4xkfT-6" value="Semaforo está en verde?" style="strokeWidth=2;html=1;shape=mxgraph.flowchart.decision;whiteSpace=wrap;" parent="1" vertex="1">
          <mxGeometry x="590" y="170" width="190" height="80" as="geometry" />
        </mxCell>
        <mxCell id="XpRSO7HDRtoMjhI4xkfT-12" style="edgeStyle=orthogonalEdgeStyle;rounded=0;orthogonalLoop=1;jettySize=auto;html=1;entryX=1;entryY=0.5;entryDx=0;entryDy=0;entryPerimeter=0;exitX=1;exitY=0.5;exitDx=0;exitDy=0;exitPerimeter=0;" parent="1" source="XpRSO7HDRtoMjhI4xkfT-7" target="XpRSO7HDRtoMjhI4xkfT-6" edge="1">
          <mxGeometry relative="1" as="geometry" />
        </mxCell>
        <mxCell id="XpRSO7HDRtoMjhI4xkfT-7" value="Imprime No cruzar Calle" style="strokeWidth=2;html=1;shape=mxgraph.flowchart.document2;whiteSpace=wrap;size=0.25;" parent="1" vertex="1">
          <mxGeometry x="575" y="280" width="220" height="50" as="geometry" />
        </mxCell>
        <mxCell id="XpRSO7HDRtoMjhI4xkfT-8" style="edgeStyle=orthogonalEdgeStyle;rounded=0;orthogonalLoop=1;jettySize=auto;html=1;exitX=0.5;exitY=1;exitDx=0;exitDy=0;" parent="1" source="XpRSO7HDRtoMjhI4xkfT-3" target="XpRSO7HDRtoMjhI4xkfT-3" edge="1">
          <mxGeometry relative="1" as="geometry" />
        </mxCell>
        <mxCell id="XpRSO7HDRtoMjhI4xkfT-19" style="edgeStyle=orthogonalEdgeStyle;rounded=0;orthogonalLoop=1;jettySize=auto;html=1;entryX=0.5;entryY=0;entryDx=0;entryDy=0;" parent="1" source="XpRSO7HDRtoMjhI4xkfT-17" target="XpRSO7HDRtoMjhI4xkfT-5" edge="1">
          <mxGeometry relative="1" as="geometry" />
        </mxCell>
        <mxCell id="XpRSO7HDRtoMjhI4xkfT-21" style="edgeStyle=orthogonalEdgeStyle;rounded=0;orthogonalLoop=1;jettySize=auto;html=1;entryX=0.5;entryY=0;entryDx=0;entryDy=0;entryPerimeter=0;" parent="1" source="XpRSO7HDRtoMjhI4xkfT-17" target="XpRSO7HDRtoMjhI4xkfT-20" edge="1">
          <mxGeometry relative="1" as="geometry" />
        </mxCell>
        <mxCell id="XpRSO7HDRtoMjhI4xkfT-17" value="Semaforo está en verde?" style="strokeWidth=2;html=1;shape=mxgraph.flowchart.decision;whiteSpace=wrap;" parent="1" vertex="1">
          <mxGeometry x="365" y="430" width="190" height="80" as="geometry" />
        </mxCell>
        <mxCell id="XpRSO7HDRtoMjhI4xkfT-22" style="edgeStyle=orthogonalEdgeStyle;rounded=0;orthogonalLoop=1;jettySize=auto;html=1;entryX=1;entryY=0.5;entryDx=0;entryDy=0;entryPerimeter=0;exitX=1;exitY=0.5;exitDx=0;exitDy=0;exitPerimeter=0;" parent="1" source="XpRSO7HDRtoMjhI4xkfT-20" target="XpRSO7HDRtoMjhI4xkfT-17" edge="1">
          <mxGeometry relative="1" as="geometry">
            <Array as="points">
              <mxPoint x="590" y="575" />
              <mxPoint x="590" y="470" />
            </Array>
          </mxGeometry>
        </mxCell>
        <mxCell id="XpRSO7HDRtoMjhI4xkfT-20" value="Imprime No cruzar Calle" style="strokeWidth=2;html=1;shape=mxgraph.flowchart.document2;whiteSpace=wrap;size=0.25;" parent="1" vertex="1">
          <mxGeometry x="350" y="550" width="220" height="50" as="geometry" />
        </mxCell>
        <mxCell id="XpRSO7HDRtoMjhI4xkfT-23" value="Fin" style="strokeWidth=2;html=1;shape=mxgraph.flowchart.start_1;whiteSpace=wrap;" parent="1" vertex="1">
          <mxGeometry x="135" y="670" width="170" height="40" as="geometry" />
        </mxCell>
        <mxCell id="XpRSO7HDRtoMjhI4xkfT-25" value="Si" style="text;html=1;strokeColor=none;fillColor=none;align=center;verticalAlign=middle;whiteSpace=wrap;rounded=0;" parent="1" vertex="1">
          <mxGeometry x="310" y="440" width="60" height="30" as="geometry" />
        </mxCell>
        <mxCell id="XpRSO7HDRtoMjhI4xkfT-26" value="Si" style="text;html=1;strokeColor=none;fillColor=none;align=center;verticalAlign=middle;whiteSpace=wrap;rounded=0;" parent="1" vertex="1">
          <mxGeometry x="550" y="180" width="60" height="30" as="geometry" />
        </mxCell>
        <mxCell id="XpRSO7HDRtoMjhI4xkfT-27" value="No" style="text;html=1;strokeColor=none;fillColor=none;align=center;verticalAlign=middle;whiteSpace=wrap;rounded=0;" parent="1" vertex="1">
          <mxGeometry x="640" y="250" width="60" height="30" as="geometry" />
        </mxCell>
        <mxCell id="XpRSO7HDRtoMjhI4xkfT-28" value="No" style="text;html=1;strokeColor=none;fillColor=none;align=center;verticalAlign=middle;whiteSpace=wrap;rounded=0;" parent="1" vertex="1">
          <mxGeometry x="414" y="510" width="60" height="30" as="geometry" />
        </mxCell>
      </root>
    </mxGraphModel>
  </diagram>
</mxfile>
